<svg width="114" height="249" viewBox="0 0 114 249" fill="none" xmlns="http://www.w3.org/2000/svg">
<path d="M-257.655 179.083C-257.309 212.886 -237.391 258.969 -200.266 249.141C-172.205 241.712 -199.142 210.551 -165.018 191.101C-130.894 171.651 -85.294 175.428 -62.4726 204.525C-45.6672 225.952 -73.228 248.016 -59.999 271.298C-29.5913 324.814 110.767 307.585 113.94 247.632C116.043 207.892 60.6909 204.175 42.2802 167.972C19.911 123.986 60.8848 82.3018 25.8473 45.2364C-0.649745 17.2058 -30.6883 -8.83007 -69.8933 4.20669C-120.809 21.1377 -16.9185 103.813 -65.3959 125.612C-87.9177 135.74 -104.899 130.323 -129.957 128.004C-160.588 125.169 -175.814 100.887 -205.476 108.513C-241.427 117.756 -257.988 146.425 -257.655 179.083Z" fill="url(#paint0_linear_120_1495)"/>
<defs>
<linearGradient id="paint0_linear_120_1495" x1="-115.155" y1="49.591" x2="-120.612" y2="337.72" gradientUnits="userSpaceOnUse">
<stop offset="0.07" stop-color="#5FC9AB"/>
<stop offset="1" stop-color="#231B9A"/>
</linearGradient>
</defs>
</svg>
