<svg width="129" height="46" viewBox="0 0 129 46" fill="none" xmlns="http://www.w3.org/2000/svg">
<path d="M14.4586 21.402V45H8.75465V21.402H14.4586ZM15.2406 14.525C15.2406 15.0157 15.141 15.4757 14.9416 15.905C14.7423 16.3343 14.474 16.71 14.1366 17.032C13.8146 17.354 13.4313 17.6147 12.9866 17.814C12.542 17.998 12.0666 18.09 11.5606 18.09C11.07 18.09 10.6023 17.998 10.1576 17.814C9.72832 17.6147 9.35265 17.354 9.03065 17.032C8.70865 16.71 8.44798 16.3343 8.24865 15.905C8.06465 15.4757 7.97265 15.0157 7.97265 14.525C7.97265 14.019 8.06465 13.5437 8.24865 13.099C8.44798 12.6543 8.70865 12.271 9.03065 11.949C9.35265 11.627 9.72832 11.374 10.1576 11.19C10.6023 10.9907 11.07 10.891 11.5606 10.891C12.0666 10.891 12.542 10.9907 12.9866 11.19C13.4313 11.374 13.8146 11.627 14.1366 11.949C14.474 12.271 14.7423 12.6543 14.9416 13.099C15.141 13.5437 15.2406 14.019 15.2406 14.525ZM53.9453 21.402L46.4473 45H41.8933C41.372 45 41.0117 44.6627 40.8123 43.988L36.5803 30.349C36.4423 29.889 36.312 29.4367 36.1893 28.992C36.082 28.532 35.99 28.072 35.9133 27.612C35.8213 28.072 35.714 28.5397 35.5913 29.015C35.484 29.475 35.3613 29.935 35.2233 30.395L30.9223 43.988C30.7383 44.6627 30.332 45 29.7033 45H25.3333L17.8583 21.402H22.3893C22.8033 21.402 23.156 21.5017 23.4473 21.701C23.7387 21.9003 23.9303 22.1533 24.0223 22.46L27.4033 35.064C27.572 35.754 27.7177 36.4287 27.8403 37.088C27.9783 37.7473 28.0933 38.4067 28.1853 39.066C28.354 38.4067 28.5303 37.7473 28.7143 37.088C28.9137 36.4287 29.1207 35.754 29.3353 35.064L33.2453 22.414C33.3373 22.1073 33.5137 21.8543 33.7743 21.655C34.0503 21.4557 34.38 21.356 34.7633 21.356H37.2703C37.669 21.356 38.0063 21.4557 38.2823 21.655C38.5737 21.8543 38.7653 22.1073 38.8573 22.414L42.6523 35.064C42.8517 35.754 43.0357 36.4363 43.2043 37.111C43.3883 37.7703 43.5647 38.4297 43.7333 39.089C43.9327 37.7857 44.2163 36.444 44.5843 35.064L48.0573 22.46C48.1647 22.1533 48.3563 21.9003 48.6323 21.701C48.9083 21.5017 49.238 21.402 49.6213 21.402H53.9453ZM95.4704 10.822V30.395H96.5284C96.9117 30.395 97.2107 30.349 97.4254 30.257C97.6554 30.1497 97.8854 29.9427 98.1154 29.636L103.98 22.391C104.226 22.069 104.494 21.8237 104.785 21.655C105.092 21.4863 105.483 21.402 105.958 21.402H111.156L103.819 30.165C103.298 30.855 102.731 31.384 102.117 31.752C102.439 31.982 102.723 32.2503 102.968 32.557C103.229 32.8637 103.474 33.1933 103.704 33.546L111.57 45H106.441C105.997 45 105.613 44.931 105.291 44.793C104.969 44.6397 104.701 44.3713 104.486 43.988L98.4604 35.041C98.2457 34.6883 98.0234 34.4583 97.7934 34.351C97.5634 34.2437 97.2184 34.19 96.7584 34.19H95.4704V45H89.7894V10.822H95.4704ZM120.25 21.402V45H114.546V21.402H120.25ZM121.032 14.525C121.032 15.0157 120.932 15.4757 120.733 15.905C120.533 16.3343 120.265 16.71 119.928 17.032C119.606 17.354 119.222 17.6147 118.778 17.814C118.333 17.998 117.858 18.09 117.352 18.09C116.861 18.09 116.393 17.998 115.949 17.814C115.519 17.6147 115.144 17.354 114.822 17.032C114.5 16.71 114.239 16.3343 114.04 15.905C113.856 15.4757 113.764 15.0157 113.764 14.525C113.764 14.019 113.856 13.5437 114.04 13.099C114.239 12.6543 114.5 12.271 114.822 11.949C115.144 11.627 115.519 11.374 115.949 11.19C116.393 10.9907 116.861 10.891 117.352 10.891C117.858 10.891 118.333 10.9907 118.778 11.19C119.222 11.374 119.606 11.627 119.928 11.949C120.265 12.271 120.533 12.6543 120.733 13.099C120.932 13.5437 121.032 14.019 121.032 14.525Z" fill="url(#paint0_linear_120_1494)"/>
<path d="M73.0837 42.1075H71.5245C63.6168 42.1075 57.2063 35.8251 57.2063 28.0753C57.2063 26.3403 57.6189 24.2865 58.2063 22.7527M64.9841 15.5892C66.9446 14.6009 69.1681 14.043 71.5245 14.043C80.4336 14.043 85.2063 20.5914 85.2063 25.2688V44.043V45.043" stroke="url(#paint1_linear_120_1494)" stroke-width="6"/>
<path d="M61.205 23.0421C59.1402 28.7319 61.8816 36.4011 67.5713 38.4659C73.2611 40.5306 79.5645 37.584 81.6293 31.8943C83.6941 26.2046 80.7475 19.9011 75.0577 17.8363C72.0368 16.74 68.705 16.5421 65.705 18.5421" stroke="#231B9A" stroke-width="6"/>
<circle cx="71.2051" cy="28.0421" r="2" stroke="#0A0171" stroke-width="2"/>
<defs>
<linearGradient id="paint0_linear_120_1494" x1="51.4697" y1="7" x2="50.4183" y2="50.5061" gradientUnits="userSpaceOnUse">
<stop offset="0.07" stop-color="#5FC9AB"/>
<stop offset="1" stop-color="#231B9A"/>
</linearGradient>
<linearGradient id="paint1_linear_120_1494" x1="68.378" y1="18.7604" x2="66.189" y2="47.9326" gradientUnits="userSpaceOnUse">
<stop offset="0.07" stop-color="#5FC9AB"/>
<stop offset="1" stop-color="#231B9A"/>
</linearGradient>
</defs>
</svg>
