<svg width="20" height="19" viewBox="0 0 20 19" fill="none" xmlns="http://www.w3.org/2000/svg">
<path d="M9.61622 15.2739L4.75325 18.2066C4.57216 18.3123 4.39068 18.3568 4.20881 18.34C4.02691 18.3232 3.86225 18.2619 3.71481 18.1561C3.56739 18.0503 3.45362 17.9121 3.3735 17.7414C3.29335 17.5708 3.28053 17.3821 3.33503 17.1753L4.62587 11.6538L0.332622 7.93741C0.172372 7.79799 0.0702155 7.63654 0.026153 7.45306C-0.0179095 7.26956 -0.00629471 7.09128 0.060997 6.91822C0.128309 6.74514 0.225268 6.60371 0.351872 6.49394C0.478476 6.38417 0.651549 6.31246 0.871091 6.27881L6.53693 5.78363L8.73643 0.569689C8.81656 0.375793 8.93794 0.232365 9.10059 0.139406C9.26326 0.0464687 9.43513 0 9.61622 0C9.7973 0 9.96917 0.0464687 10.1318 0.139406C10.2945 0.232365 10.4159 0.375793 10.496 0.569689L12.6955 5.78363L18.3613 6.27881C18.5809 6.31246 18.754 6.38417 18.8806 6.49394C19.0072 6.60371 19.1041 6.74514 19.1714 6.91822C19.2387 7.09128 19.2503 7.26956 19.2063 7.45306C19.1622 7.63654 19.0601 7.79799 18.8998 7.93741L14.6066 11.6538L15.8974 17.1753C15.9519 17.3821 15.9391 17.5708 15.8589 17.7414C15.7788 17.9121 15.665 18.0503 15.5176 18.1561C15.3702 18.2619 15.2055 18.3232 15.0236 18.34C14.8417 18.3568 14.6603 18.3123 14.4792 18.2066L9.61622 15.2739Z" fill="#231B9A"/>
</svg>
