<svg width="20" height="20" viewBox="0 0 20 20" fill="none" xmlns="http://www.w3.org/2000/svg">
<path d="M7.50004 8.33333C8.42052 8.33333 9.16671 7.58714 9.16671 6.66667C9.16671 5.74619 8.42052 5 7.50004 5C6.57957 5 5.83337 5.74619 5.83337 6.66667C5.83337 7.58714 6.57957 8.33333 7.50004 8.33333Z" stroke="#262626" stroke-width="1.5" stroke-linecap="round" stroke-linejoin="round"/>
<path d="M10.8333 1.66666H7.49996C3.33329 1.66666 1.66663 3.33332 1.66663 7.49999V12.5C1.66663 16.6667 3.33329 18.3333 7.49996 18.3333H12.5C16.6666 18.3333 18.3333 16.6667 18.3333 12.5V8.33332" stroke="#262626" stroke-width="1.5" stroke-linecap="round" stroke-linejoin="round"/>
<path d="M15 6.66666V1.66666L16.6667 3.33332" stroke="#262626" stroke-width="1.5" stroke-linecap="round" stroke-linejoin="round"/>
<path d="M15 1.66666L13.3334 3.33332" stroke="#262626" stroke-width="1.5" stroke-linecap="round" stroke-linejoin="round"/>
<path d="M2.22498 15.7917L6.33331 13.0333C6.99164 12.5917 7.94164 12.6417 8.53331 13.15L8.80831 13.3917C9.45831 13.95 10.5083 13.95 11.1583 13.3917L14.625 10.4167C15.275 9.85834 16.325 9.85834 16.975 10.4167L18.3333 11.5833" stroke="#262626" stroke-width="1.5" stroke-linecap="round" stroke-linejoin="round"/>
</svg>
