<svg width="20" height="20" viewBox="0 0 20 20" fill="none" xmlns="http://www.w3.org/2000/svg">
<path d="M17.475 0.833344H15.025C13.9667 0.833344 13.3334 1.46668 13.3334 2.52501V4.97501C13.3334 6.03334 13.9667 6.66668 15.025 6.66668H17.475C18.5334 6.66668 19.1667 6.03334 19.1667 4.97501V2.52501C19.1667 1.46668 18.5334 0.833344 17.475 0.833344ZM17.6584 3.59168C17.5584 3.69168 17.425 3.74168 17.2917 3.74168C17.1584 3.74168 17.025 3.69168 16.925 3.59168L16.775 3.44168V5.30834C16.775 5.60001 16.5417 5.83334 16.25 5.83334C15.9584 5.83334 15.725 5.60001 15.725 5.30834V3.44168L15.575 3.59168C15.375 3.79168 15.0417 3.79168 14.8417 3.59168C14.6417 3.39168 14.6417 3.05834 14.8417 2.85834L15.8834 1.81668C15.925 1.77501 15.9834 1.74168 16.0417 1.71668C16.0584 1.70834 16.075 1.70834 16.0917 1.70001C16.1334 1.68334 16.175 1.67501 16.225 1.67501C16.2417 1.67501 16.2584 1.67501 16.275 1.67501C16.3334 1.67501 16.3834 1.68334 16.4417 1.70834C16.45 1.70834 16.45 1.70834 16.4584 1.70834C16.5167 1.73334 16.5667 1.76668 16.6084 1.80834C16.6167 1.81668 16.6167 1.81668 16.625 1.81668L17.6667 2.85834C17.8667 3.05834 17.8667 3.39168 17.6584 3.59168Z" fill="#231B9A"/>
<path d="M7.50006 8.64999C8.59542 8.64999 9.48339 7.76202 9.48339 6.66665C9.48339 5.57129 8.59542 4.68332 7.50006 4.68332C6.40469 4.68332 5.51672 5.57129 5.51672 6.66665C5.51672 7.76202 6.40469 8.64999 7.50006 8.64999Z" fill="#231B9A"/>
<path d="M17.475 6.66666H17.0833V10.5083L16.975 10.4167C16.325 9.85832 15.275 9.85832 14.625 10.4167L11.1583 13.3917C10.5083 13.95 9.45829 13.95 8.80829 13.3917L8.52496 13.1583C7.93329 12.6417 6.99163 12.5917 6.32496 13.0417L3.20829 15.1333C3.02496 14.6667 2.91663 14.125 2.91663 13.4917V6.50832C2.91663 4.15832 4.15829 2.91666 6.50829 2.91666H13.3333V2.52499C13.3333 2.19166 13.3916 1.90832 13.525 1.66666H6.50829C3.47496 1.66666 1.66663 3.47499 1.66663 6.50832V13.4917C1.66663 14.4 1.82496 15.1917 2.13329 15.8583C2.84996 17.4417 4.38329 18.3333 6.50829 18.3333H13.4916C16.525 18.3333 18.3333 16.525 18.3333 13.4917V6.47499C18.0916 6.60832 17.8083 6.66666 17.475 6.66666Z" fill="#231B9A"/>
</svg>
