<svg width="60" height="60" viewBox="0 0 60 60" fill="none" xmlns="http://www.w3.org/2000/svg">
<g filter="url(#filter0_d_3798_80738)">
<rect x="10" y="10" width="40" height="40" rx="20" shape-rendering="crispEdges"/>
<path d="M38.97 19H36.03C34.76 19 34 19.76 34 21.03V23.97C34 25.24 34.76 26 36.03 26H38.97C40.24 26 41 25.24 41 23.97V21.03C41 19.76 40.24 19 38.97 19ZM39.19 22.31C39.07 22.43 38.91 22.49 38.75 22.49C38.59 22.49 38.43 22.43 38.31 22.31L38.13 22.13V24.37C38.13 24.72 37.85 25 37.5 25C37.15 25 36.87 24.72 36.87 24.37V22.13L36.69 22.31C36.45 22.55 36.05 22.55 35.81 22.31C35.57 22.07 35.57 21.67 35.81 21.43L37.06 20.18C37.11 20.13 37.18 20.09 37.25 20.06C37.27 20.05 37.29 20.05 37.31 20.04C37.36 20.02 37.41 20.01 37.47 20.01C37.49 20.01 37.51 20.01 37.53 20.01C37.6 20.01 37.66 20.02 37.73 20.05C37.74 20.05 37.74 20.05 37.75 20.05C37.82 20.08 37.88 20.12 37.93 20.17C37.94 20.18 37.94 20.18 37.95 20.18L39.2 21.43C39.44 21.67 39.44 22.07 39.19 22.31Z" fill="#1EC7BE"/>
<path d="M27.0001 28.3801C28.3146 28.3801 29.3801 27.3146 29.3801 26.0001C29.3801 24.6857 28.3146 23.6201 27.0001 23.6201C25.6857 23.6201 24.6201 24.6857 24.6201 26.0001C24.6201 27.3146 25.6857 28.3801 27.0001 28.3801Z" fill="#1EC7BE"/>
<path d="M38.97 26H38.5V30.61L38.37 30.5C37.59 29.83 36.33 29.83 35.55 30.5L31.39 34.07C30.61 34.74 29.35 34.74 28.57 34.07L28.23 33.79C27.52 33.17 26.39 33.11 25.59 33.65L21.85 36.16C21.63 35.6 21.5 34.95 21.5 34.19V25.81C21.5 22.99 22.99 21.5 25.81 21.5H34V21.03C34 20.63 34.07 20.29 34.23 20H25.81C22.17 20 20 22.17 20 25.81V34.19C20 35.28 20.19 36.23 20.56 37.03C21.42 38.93 23.26 40 25.81 40H34.19C37.83 40 40 37.83 40 34.19V25.77C39.71 25.93 39.37 26 38.97 26Z" fill="#1EC7BE"/>
</g>
<defs>
<filter id="filter0_d_3798_80738" x="0" y="0" width="60" height="60" filterUnits="userSpaceOnUse" color-interpolation-filters="sRGB">
<feFlood flood-opacity="0" result="BackgroundImageFix"/>
<feColorMatrix in="SourceAlpha" type="matrix" values="0 0 0 0 0 0 0 0 0 0 0 0 0 0 0 0 0 0 127 0" result="hardAlpha"/>
<feOffset/>
<feGaussianBlur stdDeviation="5"/>
<feComposite in2="hardAlpha" operator="out"/>
<feColorMatrix type="matrix" values="0 0 0 0 0.226944 0 0 0 0 0.716667 0 0 0 0 0.690548 0 0 0 0.97 0"/>
<feBlend mode="normal" in2="BackgroundImageFix" result="effect1_dropShadow_3798_80738"/>
<feBlend mode="normal" in="SourceGraphic" in2="effect1_dropShadow_3798_80738" result="shape"/>
</filter>
</defs>
</svg>
